<?xml version="1.0" encoding="utf-8"?>
<!--Designed by Vexels.com - 2017 All Rights Reserved - https://vexels.com/terms-and-conditions/-->
<svg version="1.1" id="Layer_1" xmlns="http://www.w3.org/2000/svg" xmlns:xlink="http://www.w3.org/1999/xlink" x="0px" y="0px"
	 viewBox="0 0 1200 1200" enable-background="new 0 0 1200 1200" xml:space="preserve">
<g>
	<g>
		<path fill="#1E120D" d="M584.302,1006.982c-14.37,34.73-33.733,55.688-64.869,55.688c-25.948,0-39.52-16.169-39.52-40.915
			c0-12.176,3.594-25.953,8.384-40.92c-20.361-4.79-33.534-18.561-33.534-38.921c0-13.572,5.587-28.146,14.37-38.922
			c0.802-1.002,1.998-1.401,3.195-1.401c2.198,0,4.192,1.6,4.192,4.192c0,1.002-0.2,1.999-0.997,2.796
			c-7.187,7.984-12.376,21.955-12.376,32.935c0,17.764,11.578,27.742,28.146,31.336c11.175-31.934,34.132-71.459,62.472-70.86
			c16.368,0.404,24.752,12.176,24.752,27.946c0,33.534-39.121,52.893-73.054,52.893c-2.996,0-5.388-0.2-8.782-0.598
			c-4.591,14.773-8.383,27.946-8.383,39.525c0,21.357,11.578,32.532,31.137,32.532c27.548,0,44.115-18.761,57.089-50.5
			c0.797-2.193,3.389-3.19,5.388-2.393C584.103,1002.392,585.104,1004.789,584.302,1006.982z M504.863,974.445
			c29.542,0,65.268-16.164,65.268-44.509c0-11.379-5.388-19.563-16.368-19.563c-23.55,0-44.708,37.526-54.089,63.873
			C501.27,974.445,503.064,974.445,504.863,974.445z"/>
		<path fill="#1E120D" d="M621.449,1005.387c0,0.598-0.2,1.197-0.399,1.794c-9.58,21.557-19.957,41.917-36.724,41.917
			c-9.585,0-14.773-7.586-14.375-16.767c0.598-15.571,14.773-52.095,23.556-74.853c0.598-1.794,2.193-2.791,3.793-2.791
			c2.592,0,5.189,1.994,3.992,5.388c-19.364,54.492-22.957,63.673-22.957,72.256c0,5.786,1.799,8.384,5.991,8.384
			c12.376,0,21.557-20.56,28.938-36.928c0.803-1.595,2.397-2.592,3.992-2.592c0.603,0,1.002,0.199,1.6,0.399
			C620.452,1002.192,621.449,1003.787,621.449,1005.387z M598.696,937.721c0-3.793,3.195-6.789,6.988-6.789
			c3.793,0,6.784,2.996,6.784,6.789c0,3.793-2.991,6.784-6.784,6.784C601.891,944.505,598.696,941.514,598.696,937.721z"/>
		<path fill="#1E120D" d="M662.967,1005.387c0,0.598-0.2,1.197-0.399,1.794c-11.574,24.951-22.753,41.917-41.115,41.917
			c-9.585,0-14.773-7.187-14.773-16.767c0-7.386,4.989-24.752,11.379-41.12l10.178-28.54h-12.575c-2.393,0-4.192-1.799-4.192-4.192
			c0-2.198,1.799-4.192,4.192-4.192h15.371c0.399-0.797,10.178-28.943,10.377-29.741c0.603-1.799,2.198-2.796,3.992-2.796
			c2.995,0,4.994,2.995,3.992,5.587c0.598-1.196-7.985,23.157-9.38,26.949h13.373c2.397,0,4.192,1.994,4.192,4.192
			c0,2.392-1.794,4.192-4.192,4.192h-16.368c-1.196,3.793-4.59,12.974-11.175,31.535c-8.184,23.156-10.781,32.337-10.781,38.124
			c0,5.388,2.398,8.384,6.39,8.384c14.37,0,23.949-16.568,33.334-37.128c0.797-1.395,2.392-2.392,3.987-2.392
			c0.603,0,1.201,0.199,1.799,0.399C661.97,1002.392,662.967,1003.787,662.967,1005.387z"/>
		<path fill="#1E120D" d="M745.212,1005.586c0,0.598-0.2,1.196-0.399,1.794c-12.376,29.143-28.943,47.704-58.086,56.287
			c-9.58,27.349-21.956,41.518-36.325,41.718c-11.977,0.199-19.762-7.586-19.762-19.359c0-12.575,9.779-21.756,33.733-26.147
			c4.989-0.802,10.377-1.799,15.77-3.195l4.989-14.374c-4.59,4.391-9.58,6.788-15.172,6.788c-16.966,0-21.756-11.379-21.756-21.357
			c0.399-9.181,4.989-20.161,12.775-40.521l11.179-30.339c0.598-1.595,2.193-2.592,3.793-2.592c3.394,0,4.989,2.991,3.992,5.587
			l-10.98,30.339c-8.782,24.154-12.176,30.339-12.176,37.526c0,5.787,1.799,12.974,13.173,12.974
			c10.581,0,23.356-21.158,31.341-44.111c2.592-7.785,1.395-4.192,14.768-39.524c0.598-1.595,2.198-2.791,3.793-2.791
			c2.397,0,5.189,2.791,4.192,5.787c-3.195,8.184-8.583,21.956-14.967,39.32l-15.97,45.511l-2.995,8.782
			c22.952-7.785,36.928-26.147,46.906-49.703c0.797-1.595,2.198-2.592,3.793-2.592c0.598,0,1.196,0.2,1.794,0.399
			C744.215,1002.591,745.212,1003.987,745.212,1005.586z M676.948,1066.065c-3.793,0.797-7.387,1.595-10.98,2.193
			c-18.362,3.195-26.147,8.384-26.945,17.569c0,6.983,4.59,11.374,11.379,11.175
			C661.178,1096.803,670.359,1086.226,676.948,1066.065z"/>
	</g>
	<g>
		<path fill="#757575" d="M523.538,211.285c0.197-2.161,0.631-4.322,1.299-6.422c-199.692,35.632-351.807,210.431-351.807,420.208
			c0,38.394,5.101,76.464,15.159,113.147l5.875-1.61c-9.914-36.161-14.94-73.688-14.94-111.538
			C179.124,419.118,327.863,247.364,523.538,211.285z"/>
		<path fill="#757575" d="M671.232,204.159c0.352,2.089,0.468,4.191,0.379,6.258c198.063,34.111,349.263,207.003,349.263,414.654
			c0,36.664-4.714,73.036-14.012,108.102l5.891,1.563c9.43-35.577,14.213-72.474,14.213-109.665
			C1026.966,413.917,872.859,238.179,671.232,204.159z"/>
	</g>
	<g>
		<path fill="#757575" d="M408.634,1000.145c-41.822-21.406-80.258-49.934-113.752-85.175l-4.416,4.198
			c34.722,36.532,74.658,65.994,118.168,87.857V1000.145z"/>
		<path fill="#757575" d="M905.431,914.639c-33.484,35.305-71.916,63.888-113.744,85.343v6.883
			c43.519-21.913,83.454-51.433,118.168-88.032L905.431,914.639z"/>
	</g>
	<g>
		<path fill="#757575" d="M600.045,695.266c-152.454,0.003-304.952,14.952-456.865,44.838c0,68.381-0.004,136.763,0.003,205.142
			c95.092-18.707,190.382-31.556,285.753-38.552c-0.702-1.914-1.18-3.912-1.444-5.947c-92.995,6.878-186.054,19.266-278.216,37.103
			c-0.004-47.383-0.004-94.763-0.003-142.146v-50.583c149.244-29.037,300.877-43.758,450.798-43.761h0.016
			c149.852,0,301.438,14.722,450.641,43.761v192.731c-119.278-23.08-240.061-37.039-360.263-41.726
			c0.243,2.016,0.284,4.057,0.099,6.078c122.244,4.748,244.428,19.082,366.258,43.045V740.104
			C904.908,710.206,752.499,695.264,600.045,695.266z"/>
	</g>
	<g>
		<path fill="#757575" d="M143.46,945.354h180.82l-27.024-27.292C297.256,918.062,214.226,926.575,143.46,945.354z"/>
	</g>
	<g>
		<path fill="#757575" d="M1056.299,945.354h-180.58l26.991-27.292C902.71,918.062,985.625,926.575,1056.299,945.354z"/>
	</g>
	<g>
		<g>
			<g>
				<path fill="#757575" d="M1101.033,765.072l42.561-98.843l-3.74-0.705c-34.241-6.444-80.728-13.109-118.207-18.111
					c0.613,2.106,1.064,4.214,1.323,6.324c35.65,4.775,78.955,10.997,112.013,17.079l-40.586,94.255l45.472,105.611
					c-28.732-5.363-60.099-10.375-86.82-14.387c0.22,2.177,0.229,4.217,0.125,6.181c28.192,4.24,61.422,9.58,91.187,15.255
					l5.638,1.075L1101.033,765.072z"/>
			</g>
		</g>
		<g>
			<g>
				<path fill="#757575" d="M98.967,765.072l-42.561-98.843l3.74-0.705c34.242-6.444,80.728-13.109,118.207-18.111
					c-0.613,2.106-1.064,4.214-1.323,6.324c-35.65,4.775-78.955,10.997-112.013,17.079l40.586,94.255L60.13,870.683
					c28.732-5.363,60.099-10.375,86.82-14.387c-0.22,2.177-0.229,4.217-0.125,6.181c-28.192,4.24-61.422,9.58-91.187,15.255
					L50,878.806L98.967,765.072z"/>
			</g>
		</g>
	</g>
	<g>
		<g>
			<path fill="#A3A3A3" d="M128.776,628.118c-1.683,0-3.047-1.365-3.047-3.047c0-6.132,0.119-12.322,0.351-18.397
				c0.063-1.682,1.462-3.001,3.161-2.928c1.681,0.065,2.993,1.48,2.928,3.161c-0.23,5.999-0.346,12.109-0.346,18.165
				C131.823,626.753,130.459,628.118,128.776,628.118z"/>
		</g>
		<g>
			<path fill="#A3A3A3" d="M131.969,573.008c-0.118,0-0.236-0.007-0.356-0.021c-1.671-0.194-2.869-1.708-2.674-3.379l0.368-3.078
				c0.206-1.669,1.718-2.862,3.396-2.651c1.669,0.205,2.857,1.727,2.651,3.396l-0.363,3.038
				C134.81,571.865,133.493,573.008,131.969,573.008z"/>
		</g>
		<g>
			<path fill="#A3A3A3" d="M1067.983,572.6c-1.526,0-2.842-1.143-3.022-2.694l-0.364-3.021c-0.208-1.669,0.974-3.192,2.645-3.401
				c1.668-0.208,3.191,0.978,3.4,2.646l0.372,3.068c0.195,1.671-1.003,3.185-2.673,3.38
				C1068.221,572.594,1068.1,572.6,1067.983,572.6z M138.281,533.498c-0.201,0-0.407-0.02-0.611-0.062
				c-1.648-0.337-2.713-1.946-2.377-3.594c2.465-12.09,5.444-24.234,8.853-36.096c0.464-1.617,2.15-2.551,3.771-2.087
				c1.616,0.465,2.551,2.152,2.086,3.771c-3.365,11.707-6.306,23.695-8.739,35.629C140.969,532.503,139.7,533.498,138.281,533.498z
				 M1061.641,533.121c-1.417,0-2.687-0.994-2.983-2.436c-2.444-11.94-5.395-23.924-8.768-35.618
				c-0.467-1.617,0.467-3.306,2.083-3.772c1.621-0.467,3.305,0.466,3.772,2.083c3.418,11.849,6.406,23.989,8.884,36.085
				c0.338,1.648-0.726,3.258-2.373,3.596C1062.048,533.101,1061.844,533.121,1061.641,533.121z M158.679,462.566
				c-0.356,0-0.717-0.062-1.069-0.194c-1.576-0.591-2.374-2.346-1.784-3.922l1.103-2.91c0.602-1.57,2.369-2.352,3.935-1.755
				c1.572,0.603,2.357,2.365,1.755,3.935l-1.088,2.868C161.072,461.811,159.911,462.566,158.679,462.566z M1041.193,462.223
				c-1.227,0-2.386-0.748-2.848-1.966l-1.093-2.868c-0.602-1.572,0.185-3.334,1.755-3.935c1.576-0.6,3.334,0.185,3.936,1.755
				l1.098,2.886c0.596,1.573-0.193,3.332-1.766,3.929C1041.919,462.159,1041.552,462.223,1041.193,462.223z M174.328,425.73
				c-0.438,0-0.884-0.095-1.308-0.297c-1.519-0.723-2.164-2.542-1.44-4.061c5.306-11.141,11.125-22.212,17.292-32.906
				c0.842-1.459,2.705-1.958,4.161-1.117c1.458,0.84,1.959,2.704,1.118,4.161c-6.089,10.557-11.831,21.485-17.071,32.484
				C176.559,425.089,175.467,425.73,174.328,425.73z M1025.536,425.439c-1.137,0-2.23-0.64-2.753-1.735
				c-5.239-10.982-10.985-21.899-17.08-32.449c-0.842-1.457-0.343-3.321,1.114-4.163c1.449-0.845,3.32-0.343,4.162,1.114
				c6.174,10.687,11.996,21.748,17.304,32.874c0.723,1.519,0.079,3.338-1.439,4.062
				C1026.423,425.345,1025.974,425.439,1025.536,425.439z M211.203,361.788c-0.595,0-1.196-0.174-1.722-0.535
				c-1.387-0.953-1.74-2.849-0.787-4.237l1.762-2.548c0.962-1.383,2.861-1.724,4.24-0.764c1.382,0.961,1.723,2.859,0.764,4.24
				l-1.743,2.522C213.126,361.326,212.173,361.788,211.203,361.788z M988.639,361.558c-0.971,0-1.927-0.464-2.518-1.326
				l-1.732-2.506c-0.961-1.38-0.623-3.28,0.758-4.242c1.378-0.961,3.281-0.622,4.242,0.757l1.763,2.549
				c0.95,1.388,0.594,3.285-0.795,4.235C989.832,361.385,989.233,361.558,988.639,361.558z M235.221,329.786
				c-0.68,0-1.362-0.226-1.929-0.69c-1.301-1.065-1.493-2.985-0.426-4.288c7.816-9.545,16.11-18.906,24.651-27.819
				c1.168-1.215,3.095-1.256,4.307-0.092c1.215,1.164,1.256,3.094,0.092,4.308c-8.432,8.8-16.62,18.039-24.337,27.463
				C236.978,329.405,236.103,329.786,235.221,329.786z M964.618,329.587c-0.882,0-1.755-0.382-2.36-1.115
				c-7.728-9.43-15.921-18.664-24.346-27.448c-1.164-1.214-1.125-3.142,0.09-4.307c1.212-1.166,3.138-1.127,4.308,0.09
				c8.536,8.897,16.831,18.25,24.663,27.801c1.066,1.301,0.876,3.221-0.425,4.288C965.98,329.36,965.296,329.587,964.618,329.587z
				 M286.285,276.495c-0.839,0-1.673-0.344-2.275-1.02c-1.12-1.256-1.009-3.182,0.247-4.301l2.316-2.054
				c1.266-1.11,3.191-0.988,4.3,0.274c1.111,1.263,0.988,3.188-0.275,4.3l-2.287,2.027
				C287.73,276.241,287.006,276.495,286.285,276.495z M913.526,276.327c-0.723,0-1.449-0.256-2.03-0.775l-2.288-2.028
				c-1.262-1.111-1.386-3.036-0.272-4.3c1.114-1.264,3.036-1.384,4.3-0.275l2.32,2.058c1.254,1.12,1.364,3.047,0.243,4.302
				C915.197,275.982,914.363,276.327,913.526,276.327z M317.223,251.137c-0.925,0-1.84-0.42-2.439-1.217
				c-1.01-1.346-0.739-3.256,0.606-4.267c9.87-7.416,20.152-14.53,30.562-21.145c1.417-0.902,3.301-0.484,4.205,0.937
				c0.903,1.42,0.483,3.303-0.937,4.205c-10.275,6.531-20.426,13.554-30.169,20.875
				C318.502,250.938,317.859,251.137,317.223,251.137z M882.568,250.982c-0.636,0-1.277-0.2-1.826-0.61
				c-9.753-7.321-19.912-14.34-30.193-20.865c-1.42-0.901-1.84-2.785-0.94-4.205c0.903-1.423,2.787-1.841,4.208-0.94
				c10.412,6.609,20.704,13.722,30.583,21.134c1.346,1.011,1.618,2.921,0.607,4.267
				C884.408,250.561,883.495,250.982,882.568,250.982z M379.505,211.558c-1.091,0-2.147-0.588-2.695-1.62
				c-0.788-1.488-0.222-3.331,1.265-4.119l2.728-1.437c1.489-0.784,3.329-0.208,4.114,1.284c0.781,1.491,0.206,3.332-1.284,4.113
				l-2.704,1.424C380.474,211.444,379.985,211.558,379.505,211.558z M820.238,211.424c-0.484,0-0.971-0.115-1.428-0.358
				c-0.9-0.479-1.803-0.951-2.708-1.423c-1.492-0.776-2.072-2.615-1.296-4.108c0.779-1.49,2.618-2.073,4.109-1.297
				c0.921,0.479,1.84,0.962,2.756,1.449c1.486,0.79,2.048,2.635,1.259,4.12C822.384,210.837,821.328,211.424,820.238,211.424z
				 M415.593,194.344c-1.185,0-2.311-0.695-2.805-1.854c-0.658-1.548,0.062-3.338,1.61-3.997
				c11.363-4.837,23.048-9.275,34.732-13.192c1.603-0.529,3.322,0.326,3.858,1.92c0.535,1.596-0.325,3.323-1.92,3.858
				c-11.533,3.866-23.069,8.247-34.284,13.02C416.395,194.267,415.991,194.344,415.593,194.344z M784.099,194.214
				c-0.396,0-0.8-0.078-1.191-0.243c-11.21-4.766-22.76-9.142-34.323-13.01c-1.597-0.533-2.457-2.259-1.924-3.855
				c0.536-1.595,2.265-2.462,3.856-1.923c11.716,3.917,23.417,8.351,34.775,13.179c1.549,0.659,2.272,2.448,1.612,3.996
				C786.413,193.518,785.286,194.214,784.099,194.214z M485.543,170.89c-1.366,0-2.608-0.925-2.953-2.311
				c-0.407-1.633,0.586-3.286,2.218-3.692l3.01-0.74c1.638-0.385,3.282,0.61,3.678,2.245c0.396,1.635-0.61,3.282-2.245,3.678
				l-2.968,0.73C486.036,170.861,485.787,170.89,485.543,170.89z M714.103,170.801c-0.243,0-0.491-0.029-0.737-0.09l-2.974-0.729
				c-1.634-0.396-2.64-2.043-2.244-3.678c0.396-1.637,2.032-2.636,3.679-2.245l3.006,0.736c1.634,0.405,2.629,2.057,2.223,3.691
				C716.713,169.874,715.47,170.801,714.103,170.801z M674.91,162.815c-0.158,0-0.319-0.013-0.483-0.038
				c-12.015-1.919-24.27-3.386-36.422-4.363c-1.679-0.135-2.93-1.604-2.795-3.281c0.135-1.677,1.623-2.944,3.281-2.793
				c12.313,0.988,24.726,2.475,36.897,4.419c1.663,0.265,2.793,1.828,2.528,3.489C677.676,161.747,676.383,162.815,674.91,162.815z
				 M598.284,156.897c-1.676,0-3.038-1.356-3.046-3.033c-0.008-1.683,1.349-3.053,3.033-3.062l1.737-0.003l1.362,0.001
				c1.684,0.005,3.043,1.374,3.038,3.057c-0.005,1.679-1.367,3.037-3.046,3.038h-0.008L600,156.894l-1.702,0.003H598.284z"/>
		</g>
		<g>
			<path fill="#A3A3A3" d="M1071.222,628.118c-1.682,0-3.046-1.365-3.046-3.047c0-6.055-0.116-12.165-0.346-18.165
				c-0.066-1.682,1.246-3.096,2.927-3.161c1.668-0.072,3.096,1.246,3.16,2.928c0.235,6.075,0.351,12.266,0.351,18.397
				C1074.268,626.753,1072.904,628.118,1071.222,628.118z"/>
		</g>
	</g>
	<g>
		<path fill="#A3A3A3" d="M237.738,948.397c-0.604-0.734-1.477-1.116-2.359-1.116c-0.679,0-1.362,0.228-1.93,0.692
			c-1.301,1.066-1.49,2.987-0.424,4.287c7.831,9.552,16.127,18.904,24.663,27.802c1.169,1.217,3.096,1.255,4.307,0.09
			c1.215-1.166,1.254-3.094,0.09-4.309C253.66,967.06,245.467,957.826,237.738,948.397z"/>
		<path fill="#A3A3A3" d="M349.448,1047.36c-10.281-6.525-20.44-13.544-30.192-20.864c-0.549-0.411-1.19-0.61-1.827-0.61
			c-0.926,0-1.839,0.42-2.439,1.218c-1.01,1.346-0.739,3.255,0.608,4.267c9.879,7.412,20.17,14.524,30.583,21.134
			c1.42,0.902,3.305,0.483,4.208-0.94C351.288,1050.145,350.868,1048.262,349.448,1047.36z"/>
		<path fill="#A3A3A3" d="M383.896,1067.224c-0.906-0.471-1.808-0.943-2.708-1.422c-0.456-0.243-0.945-0.357-1.428-0.357
			c-1.091,0-2.146,0.587-2.693,1.617c-0.789,1.485-0.227,3.33,1.26,4.12c0.915,0.486,1.834,0.97,2.755,1.449
			c1.491,0.776,3.331,0.192,4.11-1.297C385.967,1069.84,385.387,1068,383.896,1067.224z"/>
		<path fill="#A3A3A3" d="M489.605,1106.885l-2.975-0.729c-0.246-0.06-0.494-0.089-0.737-0.089c-1.367,0-2.61,0.927-2.953,2.314
			c-0.407,1.634,0.588,3.286,2.222,3.691l3.006,0.737c1.647,0.39,3.283-0.608,3.679-2.245
			C492.245,1108.928,491.239,1107.282,489.605,1106.885z"/>
		<path fill="#A3A3A3" d="M451.412,1095.907c-11.563-3.868-23.113-8.244-34.323-13.009c-0.39-0.165-0.795-0.243-1.19-0.243
			c-1.188,0-2.315,0.695-2.806,1.855c-0.66,1.547,0.063,3.337,1.612,3.996c11.358,4.827,23.059,9.263,34.774,13.179
			c1.592,0.537,3.321-0.329,3.856-1.923C453.87,1098.167,453.009,1096.441,451.412,1095.907z"/>
		<path fill="#A3A3A3" d="M561.992,1118.454c-12.152-0.977-24.406-2.443-36.421-4.363c-0.164-0.026-0.325-0.038-0.483-0.038
			c-1.473,0-2.767,1.068-3.007,2.566c-0.264,1.662,0.866,3.224,2.529,3.489c12.17,1.944,24.584,3.429,36.897,4.419
			c1.657,0.151,3.146-1.116,3.281-2.794C564.921,1120.058,563.67,1118.589,561.992,1118.454z"/>
		<path fill="#A3A3A3" d="M288.501,1001.316c-0.581-0.519-1.307-0.774-2.03-0.774c-0.836,0-1.67,0.344-2.272,1.017
			c-1.122,1.255-1.011,3.182,0.243,4.302l2.32,2.057c1.264,1.11,3.186,0.989,4.3-0.275c1.114-1.263,0.99-3.188-0.272-4.299
			L288.501,1001.316z"/>
		<path fill="#A3A3A3" d="M601.713,1119.97H601.7l-1.703,0.004l-1.354-0.002h-0.008c-1.679,0.002-3.04,1.359-3.046,3.038
			c-0.005,1.684,1.354,3.052,3.039,3.058h1.362l1.737-0.003c1.684-0.007,3.04-1.379,3.032-3.061
			C604.751,1121.326,603.389,1119.97,601.713,1119.97z"/>
		<path fill="#A3A3A3" d="M964.776,947.082c-0.881,0-1.756,0.38-2.359,1.117c-7.716,9.424-15.905,18.663-24.337,27.464
			c-1.164,1.213-1.123,3.144,0.092,4.307c1.212,1.163,3.139,1.123,4.307-0.092c8.542-8.912,16.835-18.273,24.651-27.819
			c1.067-1.302,0.875-3.223-0.426-4.288C966.138,947.307,965.456,947.082,964.776,947.082z"/>
		<path fill="#A3A3A3" d="M913.712,1000.372c-0.721,0-1.445,0.254-2.026,0.773l-2.287,2.026c-1.263,1.111-1.386,3.037-0.275,4.3
			c1.109,1.263,3.034,1.385,4.3,0.275l2.316-2.053c1.256-1.12,1.367-3.044,0.247-4.301
			C915.385,1000.716,914.551,1000.372,913.712,1000.372z"/>
		<path fill="#A3A3A3" d="M714.454,1105.978c-0.244,0-0.493,0.029-0.741,0.091l-2.968,0.73c-1.635,0.396-2.64,2.042-2.245,3.679
			c0.396,1.635,2.041,2.63,3.678,2.244l3.01-0.74c1.633-0.406,2.625-2.061,2.219-3.692
			C717.062,1106.903,715.82,1105.978,714.454,1105.978z"/>
		<path fill="#A3A3A3" d="M784.405,1082.523c-0.399,0-0.803,0.078-1.191,0.245c-11.215,4.774-22.751,9.154-34.284,13.02
			c-1.596,0.535-2.455,2.263-1.92,3.858c0.536,1.595,2.254,2.45,3.858,1.921c11.685-3.917,23.37-8.355,34.732-13.192
			c1.548-0.659,2.268-2.448,1.61-3.997C786.715,1083.218,785.59,1082.523,784.405,1082.523z"/>
		<path fill="#A3A3A3" d="M820.493,1065.309c-0.481,0-0.969,0.115-1.424,0.355l-2.704,1.425c-1.49,0.781-2.065,2.621-1.284,4.113
			c0.784,1.492,2.625,2.068,4.114,1.284l2.727-1.437c1.487-0.788,2.053-2.631,1.266-4.119
			C822.639,1065.897,821.584,1065.309,820.493,1065.309z"/>
		<path fill="#A3A3A3" d="M882.774,1025.73c-0.636,0-1.279,0.199-1.828,0.61c-9.743,7.322-19.893,14.345-30.169,20.876
			c-1.42,0.902-1.839,2.784-0.936,4.205c0.903,1.421,2.787,1.839,4.204,0.937c10.41-6.616,20.692-13.73,30.563-21.146
			c1.344-1.01,1.616-2.92,0.605-4.266C884.613,1026.15,883.699,1025.73,882.774,1025.73z"/>
	</g>
	<g>
		<g>
			<path fill="#1E120D" d="M261.424,764.234c7.04-0.811,10.56-1.207,17.603-1.976c-0.001,41.807-0.002,62.709,0,104.516
				c-7.641,0.835-11.461,1.264-19.097,2.149c-23.626-27.768-35.43-41.534-59.008-68.825c-0.001,30.503-0.001,45.757,0.002,76.26
				c-7.026,0.956-10.538,1.447-17.559,2.446c-0.004-41.806-0.004-62.714,0-104.516c7.021-1,10.533-1.489,17.559-2.447
				c24.174,27.924,36.275,42.016,60.5,70.445C261.423,811.065,261.423,795.454,261.424,764.234z"/>
			<path fill="#1E120D" d="M381.38,752.879c0,6.639,0,9.959,0,16.598c-22.319,1.654-33.472,2.587-55.765,4.664
				c-0.001,11.066-0.001,16.598-0.001,27.664c20.02-1.866,30.037-2.713,50.079-4.237c-0.001,6.279-0.001,9.418-0.001,15.697
				c-20.042,1.524-30.058,2.372-50.078,4.237c0,11.185,0,16.776,0,27.96c23.01-2.144,34.523-3.104,57.56-4.797
				c0,6.639,0,9.958,0,16.597c-30.097,2.212-45.138,3.511-75.185,6.493c-0.001-41.807-0.001-62.709,0-104.517
				C337.32,756.329,352.001,755.056,381.38,752.879z"/>
			<path fill="#1E120D" d="M438.401,824.416c9.342-30.592,14.014-45.868,23.357-76.393c6.351-0.297,9.528-0.437,15.881-0.7
				c9.348,29.702,14.021,44.565,23.369,74.332c10.549-30.434,15.825-45.625,26.374-75.972c7.613-0.187,11.42-0.268,19.034-0.406
				c-14.625,42.078-21.939,63.149-36.564,105.402c-7.014,0.214-10.52,0.331-17.533,0.587c-8.808-28.328-13.212-42.47-22.02-70.731
				c-0.479,0.021-0.719,0.032-1.198,0.053c-8.807,29.038-13.212,43.569-22.017,72.673c-7.007,0.363-10.51,0.555-17.515,0.959
				c-14.612-40.964-21.915-61.394-36.52-102.181c7.6-0.533,11.401-0.788,19.005-1.271
				C422.591,780.183,427.86,794.911,438.401,824.416z"/>
			<path fill="#1E120D" d="M645.043,849.647c-7.192-0.11-10.789-0.154-17.982-0.22c0-16.506,0-24.759,0-41.263
				c-15.589-25.44-23.384-38.108-38.976-63.349c7.736-0.031,11.604-0.034,19.339-0.015c11.451,19.051,17.177,28.602,28.626,47.759
				c11.452-18.878,17.177-28.289,28.627-47.061c7.734,0.169,11.601,0.266,19.334,0.486c-15.585,24.861-23.378,37.34-38.967,62.4
				C645.043,824.888,645.043,833.14,645.043,849.647z"/>
			<path fill="#1E120D" d="M781.509,840.453c-10.578,9.664-23.652,14.073-39.227,13.322c-15.575-0.751-28.657-6.421-39.246-17.104
				c-10.588-10.688-15.881-23.686-15.881-39.085c0.001-15.399,5.293-28.119,15.881-38.065c10.588-9.951,23.67-14.602,39.246-13.853
				c15.576,0.75,28.649,6.661,39.227,17.631c10.578,10.966,15.868,24.196,15.868,39.596
				C797.377,818.296,792.088,830.785,781.509,840.453z M768.564,774.268c-7.131-7.779-15.898-11.946-26.282-12.446
				c-10.384-0.499-19.148,2.823-26.286,9.915c-7.142,7.102-10.714,15.923-10.714,26.44c0,10.518,3.572,19.58,10.714,27.237
				c7.138,7.656,15.902,11.711,26.286,12.212c10.384,0.5,19.144-2.71,26.282-9.679c7.133-6.97,10.701-15.689,10.701-26.206
				C779.266,791.223,775.698,782.049,768.564,774.268z"/>
			<path fill="#1E120D" d="M903.065,794.302c-0.001,17.243-7.515,27.309-22.552,30.359c10.935,16.233,16.401,24.375,27.33,40.711
				c-8.957-0.938-13.436-1.389-22.399-2.258c-9.978-15.024-14.969-22.514-24.954-37.452c-9.266-0.819-13.901-1.211-23.173-1.957
				c0.001,14.055,0.001,21.083,0.001,35.138c-7.058-0.568-10.587-0.842-17.647-1.368c0-41.808,0-62.706,0-104.518
				c15.556,1.159,23.331,1.789,38.875,3.154c15.944,1.4,27.345,5.214,34.213,11.276
				C899.633,773.455,903.065,782.442,903.065,794.302z M879.619,806.784c3.586-2.747,5.378-7.532,5.378-14.36
				c0-6.828-1.846-11.696-5.529-14.589c-3.687-2.893-10.261-4.784-19.726-5.618c-8.967-0.79-13.452-1.169-22.423-1.891
				c-0.001,14.952-0.001,22.429-0.001,37.381c8.793,0.708,13.188,1.078,21.977,1.852
				C869.256,810.435,876.034,809.536,879.619,806.784z"/>
			<path fill="#1E120D" d="M928.438,763.084c7.043,0.787,10.562,1.191,17.6,2.02c-0.001,20.394-0.001,30.592-0.001,50.987
				c19.087-18.146,28.624-27.142,47.682-44.974c8.932,1.2,13.397,1.817,22.323,3.086c-16.722,15.923-25.09,23.946-41.836,40.112
				c16.984,25.672,25.47,38.57,42.431,64.489c-8.329-1.185-12.495-1.764-20.831-2.89c-13.818-20.167-20.731-30.211-34.563-50.216
				c-6.081,5.83-9.122,8.754-15.206,14.615c0.001,11.723,0.001,17.585,0.001,29.309c-7.038-0.829-10.558-1.234-17.599-2.02
				C928.436,825.794,928.436,804.891,928.438,763.084z"/>
		</g>
	</g>
	<g>
		<path fill="#757575" d="M624.702,485.493c0.116-4.745,0.522-9.761,0.81-12.869c-0.106,0-0.209,0.01-0.314,0.01
			c-2.437,0-4.993-0.178-7.656-0.58c-1.149-0.173-1.98-1.186-1.923-2.349c3.356-69.395,6.757-128.485,6.792-129.072
			c0.071-1.251,1.145-2.272,2.393-2.132c1.247,0.071,2.203,1.142,2.127,2.389c-0.031,0.584-3.365,58.482-6.686,126.945
			c2.233,0.238,4.369,0.292,6.425,0.222c0.456-0.36,1.043-0.544,1.649-0.49c0.287,0.029,0.557,0.128,0.801,0.255
			c12.509-1.148,21.217-7.167,23.787-9.197l-8.987-147.158c-0.075-1.248,0.874-2.322,2.123-2.398
			c1.264-0.08,2.321,0.872,2.396,2.123l2.924,47.834l13.438,9.211l20.241-30.898c0.686-1.044,2.088-1.34,3.133-0.649
			c1.044,0.686,1.337,2.086,0.655,3.134l-21.509,32.83c-0.336,0.509-0.861,0.862-1.459,0.978c-0.14,0.03-0.292,0.043-0.437,0.043
			c-0.451,0-0.897-0.136-1.277-0.397l-12.435-8.526l5.784,94.74c0.044,0.675-0.222,1.339-0.722,1.798
			c-0.513,0.473-10.515,9.473-26.688,11.077c-0.327,3.415-0.887,10.06-0.887,15.562c0,0.632-0.265,1.237-0.73,1.667
			c-0.469,0.429-1.098,0.614-1.724,0.588c-4.352-0.371-8.367-0.345-12.232-0.159l0.287,20.11
			c15.366-1.702,30.161-6.515,44.103-14.097c0.357-4.383,0.412-8.808-0.058-13.332c-0.338-3.285,3.06-9.273,2.883-15.188
			c-0.115-3.689,1.459-9.279,1.402-14.608c1.291-14.253-2.971-30.517-4.577-44.791c-1.216-10.812,16.831-14.805,19.785-29.289
			c0.958-4.682-0.105-13.84,2.087-17.921c0.535,0.23,1.07,0.34,1.605,0.34c6.341,0,12.576-15.083,14.35-18.939
			c2.153-4.669-2.393-7.535-1.924-10.003c1.022-5.359,5.979-7.066,3.835-11.117c1.158-1.216,2.313-2.432,3.471-3.653
			c-8.627-5.222-17.259-10.444-25.888-15.667l-1.272,5.09c-9.397,0.031-5.639,7.274-8.482,7.274c-1.128,0-3.303-1.145-7.77-4.347
			c-12.342-8.857-8.773-25.352-20.747-34.691c-7.453-4.581-19.871-9.234-29.784-12.95c-5.058-1.892-9.909-3.71-14.022-5.434
			c-16.347-6.854-19.83-17.127-20.475-19.788c-0.853-1.38-1.548-2.694-1.95-3.834c-2.025-3.639-3.953-7.332-5.656-10.923
			l13.373-0.688c0,0.561,1.639,3.279,1.639,3.279c0.182,1.278-0.737,5.66-0.737,5.66c-1.499,4.016,0.23,4.175,0.518,4.175
			c0.026,0,0.039,0,0.039,0c-0.178,0.46-1.063,1.591-2.251,3.007c1.345,3.299,5.408,9.967,17.251,14.937
			c4.062,1.704,8.856,3.499,13.858,5.368c1.99,0.747,3.987,1.495,5.969,2.246c-0.048-2.404,0.124-4.736,0.151-5.085
			c-0.129,1.818,2.016,5.051,2.016,5.051c0.753,0.352,1.319,0.933,1.804,1.56c3.313,1.292,6.537,2.596,9.561,3.927
			c-2.816-4.586-4.63-13.497-4.63-13.497c3.998-2.011,1.457-6.389,1.457-6.389c-1.642-2.556-2.558-13.293-2.558-13.293
			c4.188-0.363-0.185-5.289-0.185-5.289c0.726-1.636,1.464-6.564,1.464-6.564l26.236-3.103l-26.414-1.451
			c-0.185-1.282-1.101-4.192-1.101-4.192l21.863-10.205l-24.41,5.655c-1.274-2.198-4.382-4.021-4.382-4.021l13.129-18.395
			l-18.224,15.301c-2.189-2.183-7.835-2.183-7.835-2.183l-6.372-21.673v21.863c-0.123-0.006-0.243-0.009-0.367-0.009
			c-3.582,0-8.013,2.56-8.013,2.56l-21.863-13.674l17.118,17.499c-1.445,0.721-2.911,3.816-2.911,3.816l-19.27,0.668
			c-0.258-1.721-0.399-3.086-0.417-3.552c-0.005-0.071-0.005-0.15-0.005-0.22c-0.556-11.808-5.217-21.726-7.844-33.179
			c-2.87-12.537,1.149-27.859-5.529-39.225c-6.252-10.643,0.27-11.141,7.323-16.562c3.454-2.656-0.106-9.028,2.101-13.133
			c1.96-2.613-10.55-2.494-10.578-2.542c-4.342-8.095,8.433-15.834,3.48-25.869c-0.862,2.019-2.077,3.782-3.648,5.288
			c0.538-2.294,0.168-4.363-1.118-6.203c-6.25,0.653-6.469,4.793-10.902,4.793c-0.295,0-0.604-0.017-0.941-0.058
			c3.616,3.556-7.151,9.614-3.03,15.313c1.278,1.771,3.613,2.597,2.312,4.914h-0.009c-0.345,0-10.962,1.839-11.559,2.286
			c-7.721,5.802,7.682,20.742,9.383,26.511c-4.417,0.736-2.026,16.035-0.664,18.285c2.848,4.701,0.78,12.595,2.132,14.208
			c10.4,12.391,3.98,38.406,10.013,55.847c2.219,6.421-0.097,12.192-2.967,18.1c0.349-0.419,0.834-0.73,1.419-0.809
			c0.633-0.09,15.597-2.407,20.766-21.005c0.111-0.407,0.353-0.73,0.641-1.004c-0.004-0.03-0.013-0.062-0.018-0.093l0.111,0.013
			c0.558-0.477,1.305-0.707,2.053-0.491c0.494,0.137,0.87,0.451,1.162,0.827l13.779,1.446c-0.354,0.92-0.557,3.83-0.557,3.83
			l-14.475,1.454c-7.075,17.159-22.163,19.418-22.857,19.511c-0.102,0.013-0.204,0.018-0.301,0.018c-1.115,0-2.083-0.822-2.238-1.96
			c-0.039-0.268-0.004-0.53,0.049-0.783c-2.887,5.873-6.115,11.918-5.81,18.915c0.275,6.337,2.507,14.406,9.874,14.406
			c0.385,0,0.782-0.026,1.194-0.07c-2.353,3.772-2.844,5.912-2.378,7.411c5.672-1.791,20.278-8.049,25.436-26.091
			c0.344-1.203,1.609-1.906,2.797-1.552c1.204,0.341,1.899,1.597,1.557,2.8c-5.169,18.082-18.801,25.559-26.218,28.377
			c1.415,0.999,2.913,2.232,3.909,4.374c2.078,2.09-0.69,17.864-0.95,23.228h0.082c1.253,0,2.266,1.012,2.266,2.263
			c0,0.527-0.208,0.986-0.505,1.367c12.215,14.96-3.896,27.014-5.579,44.73c-0.691,7.238-0.243,16.72,8.52,16.72
			c0.567,0,1.171-0.04,1.813-0.124c1.632,10.025-7.76,19.793-7.096,30.292c0.406,6.381,3.236,11.691,4.722,17.538
			c7.132-7.185,51.089-53.325,59.907-107.572c0.202-1.233,1.374-2.096,2.594-1.87c1.238,0.198,2.074,1.362,1.874,2.595
			c-9.803,60.3-61.727,110.615-62.253,111.118c-0.438,0.421-0.999,0.628-1.565,0.628c-0.027,0-0.054-0.013-0.082-0.018
			c-0.406,7.464,1.094,16.079,2.495,23.171c0.939,4.75-3.519,7.761-2.497,12.603c0.363,1.698,2.445,10.724,2.437,12.095
			c-4.411,4.909-4.259,17.359-3.393,26.62c4.925,2.369,9.952,4.377,15.062,6.056C577.498,494.775,595.73,483.703,624.702,485.493z"
			/>
		<path fill="#757575" d="M602.469,510.896c2.619,0,5.22-0.12,7.811-0.301l-0.29-20.296c-17.726,1.819-29.958,9.063-38.036,16.303
			C581.854,509.374,592.042,510.896,602.469,510.896z"/>
	</g>
	<path fill="#757575" d="M1023.084,638.165c-8.486,6.602-17.359,9.276-26.342,7.946c-12.936-1.911-26.733-12.384-38.847-29.492
		l-2.001-2.824l-2.001,2.824c-14.593,20.609-28.495,30.627-42.503,30.626c-13.997-0.002-27.896-10.02-42.492-30.626l-2-2.825
		l-2.001,2.825c-14.583,20.606-28.48,30.624-42.485,30.626c-2.417,0-4.832-0.411-7.247-1.011V545.465h202.247
		c-1.624-4.857-3.06-9.763-4.138-14.784c-0.374-1.763-0.706-3.539-0.979-5.334c-0.054-0.351-0.131-0.693-0.181-1.045h-1.539
		c-11.631-3.68-22.699-8.07-33.227-13.026v-0.228h-0.505c-50.809-24.042-88.872-61.189-115.388-94.901v-0.265h-0.203
		c-26.601-33.88-41.528-64.157-46.088-74.085v-12.604h-8.687v12.623c-6.713,14.613-35.9,73.374-91.601,122.601
		c-17.031,15.052-36.915,28.534-58.647,40.947c-33.157,18.938-77.973,21.033-102.262,5.89v-0.206h-0.444
		c-3.489-1.65-6.918-3.362-10.287-5.131c-45.74-24.007-80.457-58.388-105.159-89.813v-0.222h-0.175
		c-26.595-33.882-41.551-64.153-46.108-74.073v-12.616h-8.687v12.616c-10.079,21.937-70.675,143.019-195.343,182.493h-0.887
		c-0.021,0.308-0.063,0.609-0.086,0.916c-0.134,1.798-0.314,3.584-0.545,5.357c-0.647,5.03-1.623,9.98-2.785,14.889h199.647v101.216
		c-1.862,0.357-3.726,0.563-5.59,0.564c-14.006,0.001-27.904-10.017-42.488-30.626l-2.001-2.825l-2.001,2.825
		c-14.591,20.607-28.49,30.626-42.492,30.626c-14.001,0-27.898-10.019-42.481-30.626l-2.001-2.825l-2.001,2.825
		c-5.44,7.683-20.08,25.892-38.465,29.016c-8.344,1.42-16.379-0.562-23.876-5.891l-2.84,3.996
		c8.599,6.112,17.868,8.378,27.539,6.728c18.186-3.092,32.691-19.135,39.629-28.271c14.88,20.144,29.457,29.948,44.497,29.948
		c15.036,0,29.612-9.796,44.493-29.928c14.875,20.133,29.449,29.93,44.489,29.928c15.037-0.001,29.604-9.799,44.465-29.927
		c14.877,20.13,29.453,29.927,44.49,29.927c15.035,0,29.611-9.797,44.492-29.928c14.874,20.132,29.449,29.928,44.489,29.928
		c15.035,0,29.61-9.797,44.489-29.928c14.881,20.129,29.459,29.927,44.491,29.928h0.003c15.034,0,29.614-9.797,44.496-29.928
		c14.881,20.13,29.459,29.928,44.492,29.928c15.04,0,29.617-9.797,44.49-29.928c14.887,20.132,29.467,29.93,44.498,29.928
		c15.037-0.001,29.613-9.797,44.486-29.928c14.886,20.129,29.464,29.927,44.492,29.928h0.003c15.039,0,29.622-9.801,44.506-29.938
		c9.203,12.3,23.118,26.241,40.125,28.754c10.37,1.526,20.487-1.472,30.068-8.927L1023.084,638.165z M977.348,517.892
		c4.935,2.264,9.982,4.406,15.151,6.411h-15.151V517.892z M954.163,505.917c5.545,3.189,11.246,6.241,17.133,9.113v9.273h-17.133
		V505.917z M930.986,491.178c5.51,3.878,11.226,7.62,17.133,11.207v21.918h-17.133V491.178z M907.815,473.18
		c5.794,4.925,11.864,9.728,18.199,14.378h-1.072v36.746h-17.127V473.18z M884.633,451.592c5.401,5.503,11.118,10.957,17.129,16.314
		v56.396h-17.129V451.592z M861.455,425.699c5.295,6.476,11.001,13.031,17.13,19.578v79.026h-17.13V425.699z M838.278,394.47
		c5.039,7.509,10.767,15.476,17.13,23.652v106.181h-17.13V394.47z M815.165,355.528c3.969,7.688,9.633,17.906,17.067,29.647v139.128
		h-17.067V355.528z M220.933,524.303h-15.138c5.156-2.001,10.214-4.114,15.138-6.371V524.303z M244.109,524.303h-17.129v-9.263
		c5.881-2.869,11.588-5.908,17.129-9.095V524.303z M267.289,524.303h-17.131v-21.874c5.916-3.592,11.614-7.359,17.131-11.244
		V524.303z M290.467,524.303h-17.128v-36.746h-1.043c6.326-4.645,12.384-9.445,18.171-14.364V524.303z M313.647,524.303h-17.134
		v-56.37c6.015-5.362,11.729-10.822,17.134-16.33V524.303z M336.821,524.303h-17.129v-79.012c6.128-6.545,11.835-13.1,17.129-19.575
		V524.303z M359.998,524.303h-17.129V418.134c6.361-8.176,12.091-16.145,17.129-23.654V524.303z M383.108,524.303h-17.06V385.4
		h-0.144c7.503-11.835,13.212-22.137,17.204-29.874V524.303z M766.246,418.169c6.382-8.205,12.081-16.175,17.132-23.709v129.843
		h-17.132V418.169z M743.068,445.352c6.137-6.555,11.832-13.125,17.133-19.61v98.561h-17.133V445.352z M719.886,468.005
		c6.023-5.368,11.719-10.843,17.13-16.358v72.656h-17.13V468.005z M713.839,473.25v51.053h-17.125v-36.746h-0.936
		C702.07,482.934,708.08,478.146,713.839,473.25z M673.538,502.416c5.912-3.591,11.616-7.344,17.129-11.227v33.115h-17.129V502.416z
		 M650.36,515.066c5.868-2.863,11.595-5.866,17.125-9.045v18.282H650.36V515.066z M644.314,517.969v6.334h-15.085
		C634.362,522.309,639.41,520.217,644.314,517.969z M553.968,517.969c4.904,2.248,9.952,4.341,15.087,6.334h-15.087V517.969z
		 M530.787,506.016c5.532,3.18,11.261,6.184,17.132,9.049v9.238h-17.132V506.016z M507.613,491.189
		c5.514,3.884,11.219,7.636,17.132,11.228v21.886h-17.132V491.189z M484.433,473.245c5.761,4.897,11.773,9.687,18.069,14.313h-0.937
		v36.746h-17.132V473.245z M461.255,451.641c5.412,5.517,11.11,10.992,17.135,16.363v56.299h-17.135V451.641z M438.078,425.745
		c5.3,6.485,10.995,13.053,17.132,19.608v78.95h-17.132V425.745z M414.898,394.464c5.051,7.533,10.75,15.503,17.134,23.707v106.132
		h-17.134V394.464z M391.795,355.535c3.969,7.693,9.624,17.908,17.06,29.66v139.108h-17.06V355.535z M696.639,624.161
		c1.856,2.287,3.702,4.405,5.542,6.354C700.342,628.567,698.495,626.458,696.639,624.161z M690.931,616.619
		c1.895,2.676,3.778,5.164,5.651,7.476C694.709,621.775,692.826,619.296,690.931,616.619z M806.478,642.874
		c-8.713-4.768-17.504-13.464-26.563-26.254l-2.001-2.825l-2,2.825c-14.585,20.607-28.482,30.626-42.49,30.626
		c-10.361,0-20.669-5.523-31.241-16.728c1.007-5.5,1.154-10.855-2.979-11.924c-3.761-0.974-19.677-13.585-20.87-16.034
		c-3.035-6.213,3.302-10.717,2.833-15.266c0.203,0.032,0.379,0.048,0.528,0.048c3.572,0-5.967-8.892-6.525-8.892
		c-0.025,0-0.033,0.021-0.02,0.057c-2.217-6.279,1.638-8.148-3.62-13.691c-2.166-2.284-4.192-6.479-5.989-8.542h-46.275
		c-0.276,0.123-0.577,0.202-0.902,0.206h-0.034c-0.332,0-0.639-0.083-0.923-0.206h-82.27c-2.326,1.49-3.465,6.383-3.748,13.106
		c-0.336,7.885-10.321,0.314-4.213,11.076c2.825,4.979,1.245,11.893-1.563,16.583c-3.601,6.027,3.388,10.346-5.989,10.346
		c-1.88,0-11.897-2.554-10.408-2.82c-11.635,2.035-6.629,10.019-5.227,18.666c1.65-2.079,3.306-4.258,4.974-6.612
		c-14.591,20.607-28.489,30.626-42.491,30.626c-14.005,0-27.903-10.019-42.49-30.626l-2.002-2.828l-1.999,2.83
		c-9.616,13.599-18.934,22.49-28.185,27.03v-98.185h414.683V642.874z M806.478,524.303h-17.055V385.4h-0.136
		c7.501-11.839,13.201-22.132,17.191-29.871V524.303z"/>
</g>
</svg>
